<svg width="98" height="98" viewBox="0 0 98 98" fill="none" xmlns="http://www.w3.org/2000/svg">
<path d="M89.5678 55.3695C90.7836 69.8345 80.5045 67.0593 77.4774 70.9381C74.3367 74.9535 75.402 68.0948 78.0687 67.663C80.5432 67.2616 85.23 65.8408 86.8688 64.1019C86.9633 64.0041 87.0445 63.8992 87.1201 63.8C88.449 61.9489 89.7094 56.6581 88.5051 52.7582C87.8448 50.611 87.2438 49.8894 86.628 49.7075C86.1273 49.5582 85.6134 49.7565 85.0479 49.8302C83.7772 49.9973 77.3144 55.2535 75.1609 62.3775C72.9114 69.7952 73.2594 61.1443 73.2594 61.1443C73.4784 60.7184 73.722 60.2768 73.9847 59.832C77.6078 53.6136 84.4697 46.3043 87.7196 49.6172C88.6502 50.5631 89.3155 52.3796 89.5678 55.3695Z" fill="#FBCC34"/>
<path opacity="0.1" d="M86.628 49.7076C86.1273 49.5583 85.6134 49.7566 85.0479 49.8303C83.7772 49.9974 77.3144 55.2536 75.1608 62.3776C72.9114 69.7953 73.2594 61.1443 73.2594 61.1443C73.4784 60.7185 73.722 60.2769 73.9847 59.8321C74.8379 60.1431 75.1794 60.3288 75.1794 60.3288C75.1794 60.3288 76.97 56.5875 78.9453 54.4237C80.8739 52.3232 84.2134 48.4418 86.628 49.7076Z" fill="#1A0000"/>
<path opacity="0.1" d="M89.5679 55.3695C90.7837 69.8345 80.5047 67.0593 77.4776 70.9381C74.3368 74.9534 75.4022 68.0948 78.0688 67.663C80.5433 67.2616 85.2301 65.8408 86.8689 64.1019C87.7745 63.6698 88.3389 62.9595 88.586 62.1516C89.0333 60.7015 90.0421 57.6293 88.8017 52.0553C88.605 51.175 88.2204 50.3597 87.7193 49.6172C88.6503 50.5631 89.3157 52.3796 89.5679 55.3695Z" fill="#1A0000"/>
<path d="M67.3091 79.7727C53.8194 79.3882 42.7683 80.9724 47.2654 85.9676C50.8264 89.9226 64.4135 89.7055 71.3434 84.4924C74.6365 82.015 73.5528 79.9507 67.3091 79.7727Z" fill="#C3922E"/>
<path d="M67.309 79.7727C53.8193 79.3882 42.7546 80.6379 47.21 84.7688C50.7302 88.0327 64.2892 87.9234 71.2782 83.6778C74.606 81.6564 73.5527 79.9508 67.309 79.7727Z" fill="#FBCC34"/>
<path d="M62.591 73.4232C58.3106 73.2174 62.244 74.7209 60.0823 79.3231C59.0546 81.5111 55.3559 81.6546 56.5246 82.7585C58.5334 84.6555 66.3363 84.6735 70.4706 82.1969C72.4747 80.9964 66.4207 73.6073 62.591 73.4232Z" fill="#E6BA30"/>
<path d="M67.3626 77.1526C60.7549 79.5318 50.601 80.2151 39.8307 73.3963C29.2128 66.6678 27.4879 65.7601 24.8076 66.1783C24.7691 66.1826 24.7232 66.1864 24.6771 66.1965V66.2028C23.6672 66.3642 22.946 66.6002 22.3375 66.6963C20.09 67.0632 19.9254 65.4399 24.1926 62.5252C28.2993 59.7258 44.4053 68.4144 49.0023 63.6359C49.9247 62.676 51.1093 61.8166 52.4821 61.094C52.5192 61.0693 52.5642 61.0454 52.6017 61.0278C54.7784 59.8905 57.3997 59.0959 60.176 58.7656C62.1003 58.5386 64.1077 58.5368 66.0945 58.7989C67.5519 59.0031 68.9934 59.3423 70.3948 59.8449C70.8383 60.0032 71.2757 60.1801 71.7062 60.3688C71.9527 60.4756 72.2 60.5954 72.4394 60.708C72.4678 60.7235 72.4961 60.739 72.5244 60.7545C79.4637 64.2155 83.0382 71.4975 67.3626 77.1526Z" fill="#FBCC34"/>
<path d="M26.159 63.1128C25.8367 63.4856 25.2554 63.9944 24.3263 64.6624C20.1584 67.6432 21.1244 65.4883 21.6891 64.8808C22.1259 64.403 23.4948 63.3034 24.0694 62.8561C24.222 62.7343 24.3134 62.6587 24.3134 62.6587C25.4676 62.0304 27.237 61.8558 26.159 63.1128Z" fill="#CCA62B"/>
<path opacity="0.1" d="M26.159 63.1128C25.6481 62.7416 24.9479 62.6948 24.0696 62.8559C24.2221 62.7342 24.3136 62.6586 24.3136 62.6586C25.4676 62.0304 27.237 61.8558 26.159 63.1128Z" fill="#1A0000"/>
<path d="M72.588 61.0392C72.873 62.4294 68.8391 63.6952 63.4009 63.8682C57.7576 64.0479 52.8016 62.9897 52.5277 61.5024C52.2547 60.0198 56.7566 58.7531 62.388 58.6719C67.8159 58.5936 72.3038 59.6531 72.588 61.0392Z" fill="#C3922E"/>
<path d="M72.588 61.0392C72.873 62.4294 68.8391 63.6952 63.4009 63.8682C57.7576 64.0479 52.8016 62.9897 52.5277 61.5024C52.2547 60.0198 56.7566 58.7531 62.388 58.6719C67.8159 58.5936 72.3038 59.6531 72.588 61.0392Z" fill="#C3922E"/>
<path d="M72.5326 60.768C72.5434 60.8144 72.5466 60.8534 72.5437 60.8986C72.5434 61.054 72.4691 61.2159 72.3259 61.3656C71.4351 62.35 67.847 63.1702 63.2946 63.3038C57.8393 63.4713 53.0446 62.601 52.519 61.3402C52.4936 61.2963 52.4834 61.2538 52.4733 61.2113C52.4635 61.1757 52.4689 61.1346 52.4823 61.094C52.644 59.985 56.9524 56.3414 59.6169 53.5442C60.6919 52.4258 58.8584 50.0868 60.4264 50.1123C62.0635 50.1349 60.6949 52.5772 62.336 53.8032C66.1429 56.6536 72.2943 59.8669 72.5246 60.7548C72.5321 60.7615 72.5321 60.7615 72.5326 60.768Z" fill="#FBCC34"/>
<path opacity="0.1" d="M67.3626 77.1526C60.7549 79.5318 50.601 80.2151 39.8307 73.3963C29.2128 66.6677 27.4879 65.7601 24.8076 66.1783C30.6269 65.1951 30.4353 68.1335 41.0324 72.3881C51.1893 76.4683 55.7348 72.8592 55.5402 69.567C55.5402 69.567 56.6651 71.3141 56.8215 73.8958C56.8215 73.8958 74.3457 76.2681 75.87 65.3499C76.0601 63.9708 74.5985 62.7432 72.4075 61.6912L72.4006 61.6906L72.3257 61.3656C72.3257 61.3656 71.6248 60.7766 70.3948 59.8447C70.2122 59.704 70.0155 59.562 69.8034 59.3987L69.7965 59.3981C68.7352 58.6132 67.3702 57.6449 65.7743 56.5959C61.7077 53.9245 61.2005 54.8053 60.9899 51.739C60.89 50.2851 60.4264 50.1121 60.4264 50.1121C62.0635 50.1346 60.695 52.577 62.3361 53.8029C66.1429 56.6534 72.2944 59.8667 72.5246 60.7546C79.4637 64.2154 83.0382 71.4975 67.3626 77.1526Z" fill="#1A0000"/>
<path opacity="0.5" d="M22.7552 61.809C13.437 56.8845 15.3649 42.4516 24.9218 39.051C31.2173 36.811 38.1615 37.5617 44.5453 35.6471C48.8445 34.3577 54.1774 31.346 53.2662 26.0151C52.485 21.4472 47.0139 19.0385 42.9957 20.8579C41.8591 21.3724 41.8325 23.3854 42.9957 23.8907C44.072 24.3583 44.9601 24.5084 46.0986 24.7559C48.9168 24.8856 49.6273 26.6293 48.2304 29.9868C47.4876 30.6938 46.6602 31.2755 45.7475 31.732C42.7742 33.368 39.317 33.9788 36.0164 34.5419C30.7047 35.4482 24.4852 35.9091 20.2229 39.5862C13.7021 45.2116 12.2654 59.9174 22.64 62.0824C22.7981 62.1153 22.9128 61.8923 22.7552 61.809Z" fill="#005085"/>
<path opacity="0.5" d="M23.9423 61.4427C19.1441 59.0965 17.9819 51.5078 19.3901 46.7286C21.0628 41.0516 26.8911 38.3308 32.358 37.9352C38.8557 37.4649 49.7911 37.6437 53.7592 31.1322C57.5067 24.9825 49.8003 21.9078 44.9262 21.7613C40.0168 21.614 35.1711 22.7425 30.2635 22.6577C28.1768 22.6217 21.6938 22.3128 25.468 19.3467C26.9638 18.1713 30.2993 17.8513 32.1079 17.5272C33.1631 17.3383 33.0437 15.772 32.1079 15.5094C28.4775 14.4908 23.654 15.1896 20.9879 18.161C18.9016 20.4862 19.5511 23.4924 22.31 24.7488C27.5784 27.1481 33.8501 25.9106 39.3516 25.3475C42.1245 25.0637 44.9246 24.846 47.7019 25.2042C50.4423 25.1226 51.8817 26.7597 52.0204 30.1156C51.2274 30.8231 50.4344 31.5303 49.6415 32.2378C48.0664 33.2982 46.123 33.9288 44.3202 34.4939C35.4776 37.2645 23.8022 34.0267 18.5749 43.965C16.5062 47.8984 16.2089 63.8585 23.8979 61.784C24.0447 61.7446 24.0902 61.5151 23.9423 61.4427Z" fill="#005B98"/>
<path opacity="0.5" d="M23.1876 60.7944C16.3589 58.7318 12.6317 52.2054 13.2229 45.2153C13.8917 37.3092 19.9497 32.1577 27.6722 31.7768C37.8043 31.2771 47.4228 34.7752 57.1344 30.0727C60.0608 28.6557 63.5496 26.3906 63.1855 22.6554C62.8153 18.8556 59.0397 16.5432 55.8432 15.2824C46.2168 11.4856 34.4897 15.1034 24.724 16.6039C21.4852 17.1015 22.531 21.8461 25.459 22.0352C35.962 22.7137 48.0491 14.5524 57.8342 21.4416C61.6413 24.1219 56.6366 27.2571 54.0604 28.441C51.2609 29.7274 48.1527 30.3616 45.099 30.6364C39.7107 31.1216 34.4451 30.151 29.0744 30.1349C20.4681 30.1093 13.1726 35.0259 11.8274 43.8825C10.7117 51.2292 14.5218 61.3215 23.1378 61.1615C23.3493 61.1573 23.3904 60.8556 23.1876 60.7944Z" fill="#0066AA"/>
<path opacity="0.5" d="M22.6189 61.3399C18.4193 56.6809 14.6212 51.6647 15.6867 45.0003C16.8539 37.6995 22.7213 34.8838 29.4804 35.369C34.6677 35.7413 39.7991 35.5908 44.8997 34.4937C49.2328 33.5617 54.8289 31.9985 58.2938 29.0704C60.5841 27.1349 61.0519 24.415 59.4152 21.8228C57.2165 18.3401 52.6077 17.5496 48.8194 17.8283C43.8101 18.197 38.9725 19.8237 34.0776 20.8236C29.2236 21.8155 19.9316 23.0361 17.5055 17.0883C16.487 14.5916 12.834 15.4744 13.3979 18.2207C15.6025 28.9572 28.8373 27.7083 36.9504 25.7238C39.82 25.0217 42.6099 24.0548 45.4598 23.2828C47.9839 22.5991 53.0257 20.9967 55.3115 23.0246C58.597 25.9395 54.0252 27.7788 52.5757 28.4672C50.9604 29.2344 49.2569 29.8769 47.5559 30.4332C44.7952 31.336 41.954 32.0479 39.0825 32.4893C30.3333 33.8339 19.5876 30.623 15.2739 40.8539C12.1287 48.3134 15.8358 57.3725 22.4832 61.5156C22.5948 61.5857 22.7018 61.4318 22.6189 61.3399Z" fill="#0072BD"/>
<path opacity="0.5" d="M21.617 60.3679C15.9179 54.7601 11.5176 46.9894 13.1208 38.7572C13.8717 34.9019 16.0794 30.3059 19.6313 28.2685C23.7653 25.8972 30.3652 28.4925 34.6443 29.6378C40.7111 31.2615 45.7403 31.5693 51.5365 28.8326C55.3409 27.0363 61.0015 23.3092 56.5262 19.0429C52.419 15.1275 45.0972 15.5103 40.0402 16.6921C33.0878 18.3171 26.7668 23.3308 19.5908 23.8124C17.9418 23.923 14.6016 23.7366 13.6815 21.9793C11.6137 18.0306 18.0505 19.6847 19.0573 19.8867C22.6869 20.6146 26.1583 21.968 29.696 23.0257C36.5176 25.0651 43.061 25.6235 49.818 23.1C51.1299 22.61 51.0857 20.3223 49.4605 20.4576C42.6206 21.0271 36.1072 20.3277 29.5766 18.2275C24.5342 16.606 18.0716 13.6147 12.6573 14.9248C8.30448 15.9779 7.17748 20.7809 9.54996 24.258C12.3311 28.334 17.7695 28.9685 22.2339 28.0473C28.6678 26.7197 34.3244 22.9304 40.5281 20.9113C43.8415 19.8329 47.5958 19.1566 51.0365 20.0564C54.0186 20.8364 55.3412 22.9333 52.4062 25.083C51.0187 26.0993 49.5774 26.975 47.9989 27.66C40.8202 30.7756 33.1402 27.0795 25.8132 26.2061C20.8734 25.6174 17.2271 27.5358 14.4657 31.6903C7.93201 41.5203 12.6209 54.1044 21.5718 60.4261C21.6068 60.4516 21.6466 60.3972 21.617 60.3679Z" fill="#007DD0"/>
<path opacity="0.5" d="M22.2707 60.1731C16.5528 54.0398 13.2559 46.4956 18.8359 38.962C22.6357 33.8319 32.0221 35.2558 37.8037 34.3501C42.6203 33.5955 49.3941 32.7861 53.3336 29.6505C55.7101 27.759 56.3112 23.8281 53.2636 22.2306C49.4636 20.2386 44.7736 23.6219 41.5535 25.3029C38.6208 26.8335 35.5656 28.0304 32.3228 28.7287C29.992 29.2305 23.9574 30.4015 21.9897 28.1326C21.4681 25.7375 22.0933 24.4655 23.8655 24.3167C24.7821 24.1594 25.7017 24.1083 26.6244 24.1636C28.71 24.1946 30.7422 24.6521 32.7839 25.0219C35.4291 25.501 38.0776 25.9156 40.76 26.1284C47.4988 26.663 54.1536 26.1167 60.6245 24.1485C62.5621 23.5592 61.7134 20.9183 59.8099 21.1939C51.0909 22.4568 42.5286 22.7866 33.8234 21.2508C29.107 20.4187 21.975 18.6871 18.3892 23.0665C15.471 26.6303 17.7351 30.6033 21.4595 32.1893C27.3307 34.6892 34.6256 32.9532 40.2876 30.6747C43.0812 29.5505 45.4238 27.8306 48.0872 26.4957C49.6659 25.1543 50.333 25.4334 50.0885 27.3329C48.9868 27.8076 47.8663 28.2327 46.7273 28.6079C44.8989 29.2265 43.0318 29.7339 41.1525 30.1722C37.525 31.0183 33.8318 31.5511 30.1362 31.9933C27.2528 32.3382 24.0975 32.3504 21.3742 33.4575C16.7505 35.3373 14.4872 40.8927 14.1432 45.6013C13.6913 51.7889 17.7397 56.5141 22.2144 60.2297C22.2533 60.2619 22.3063 60.2112 22.2707 60.1731Z" fill="#0088E2"/>
<path opacity="0.5" d="M22.3273 61.0903C16.4928 56.9014 11.2248 44.892 15.0186 38.0919C16.7086 35.0627 19.8038 32.949 22.7884 31.3293C27.1279 28.9745 30.8841 29.2327 35.6277 29.5519C42.0391 29.9836 48.5084 29.6725 54.8415 28.5691C58.2519 27.9747 65.0319 26.6395 64.496 21.8053C63.9966 17.3008 57.3271 15.9495 53.8603 15.3812C48.1958 14.4523 42.4619 14.9319 36.7947 15.5381C33.3865 15.9028 29.9634 16.2611 26.5308 16.2117C25.0581 16.1906 16.159 16.0308 18.2031 13.1291C19.2016 11.7115 27.8162 12.778 29.322 12.855C33.5133 13.0692 37.6951 13.2324 41.8905 13.3706C43.0441 13.4087 43.3479 11.5194 42.1686 11.3155C35.5806 10.1761 29.064 9.26881 22.3552 9.30345C19.2606 9.31934 13.0757 9.60128 12.6729 13.8317C12.2672 18.0928 18.6504 19.1094 21.6463 19.5913C27.1061 20.4699 32.6136 19.9841 38.0877 19.5177C44.0427 19.01 50.0657 18.0871 55.9889 19.3729C57.2283 19.6421 60.1254 20.1277 60.8914 21.3492C62.2267 23.4784 59.1533 24.4762 57.7371 24.9331C54.398 26.0105 50.7268 26.3893 47.2491 26.6981C44.1108 26.9768 40.9549 27.0615 37.8061 26.9643C34.5197 26.8629 31.091 26.1922 27.8183 26.7231C23.1878 27.4746 18.7528 30.6133 15.7584 34.1382C8.71122 42.4341 13.5953 55.9719 22.2873 61.159C22.3319 61.1858 22.3682 61.1196 22.3273 61.0903Z" fill="#0093F5"/>
</svg>
